<mxfile host="drawio-plugin" modified="2022-04-12T22:18:21.645Z" agent="5.0 (Windows NT 6.2; Win64; x64) AppleWebKit/537.36 (KHTML, like Gecko) Chrome/89.0.4389.114 Safari/537.36" etag="ByZ7sijMv-IdbdjSNf-W" version="15.5.4" type="embed"><diagram id="C5RBs43oDa-KdzZeNtuy" name="Page-1"><mxGraphModel dx="802" dy="537" grid="1" gridSize="10" guides="1" tooltips="1" connect="1" arrows="1" fold="1" page="1" pageScale="1" pageWidth="827" pageHeight="1169" math="0" shadow="0"><root><mxCell id="WIyWlLk6GJQsqaUBKTNV-0"/><mxCell id="WIyWlLk6GJQsqaUBKTNV-1" parent="WIyWlLk6GJQsqaUBKTNV-0"/><mxCell id="zkfFHV4jXpPFQw0GAbJ--6" value="Plateau" style="swimlane;fontStyle=0;align=center;verticalAlign=top;childLayout=stackLayout;horizontal=1;startSize=26;horizontalStack=0;resizeParent=1;resizeLast=0;collapsible=1;marginBottom=0;rounded=0;shadow=0;strokeWidth=1;fillColor=#330000;strokeColor=#82b366;fontColor=#FFFFFF;" parent="WIyWlLk6GJQsqaUBKTNV-1" vertex="1"><mxGeometry x="35" y="30" width="160" height="138" as="geometry"><mxRectangle x="130" y="380" width="160" height="26" as="alternateBounds"/></mxGeometry></mxCell><mxCell id="zkfFHV4jXpPFQw0GAbJ--7" value="- gridHeight: int" style="text;align=left;verticalAlign=top;spacingLeft=4;spacingRight=4;overflow=hidden;rotatable=0;points=[[0,0.5],[1,0.5]];portConstraint=eastwest;" parent="zkfFHV4jXpPFQw0GAbJ--6" vertex="1"><mxGeometry y="26" width="160" height="26" as="geometry"/></mxCell><mxCell id="zkfFHV4jXpPFQw0GAbJ--8" value="- gridWidth: int" style="text;align=left;verticalAlign=top;spacingLeft=4;spacingRight=4;overflow=hidden;rotatable=0;points=[[0,0.5],[1,0.5]];portConstraint=eastwest;rounded=0;shadow=0;html=0;" parent="zkfFHV4jXpPFQw0GAbJ--6" vertex="1"><mxGeometry y="52" width="160" height="26" as="geometry"/></mxCell><mxCell id="hSb6sBCyw228-_JQEsBA-104" value="- gridMap [ ]: int" style="text;align=left;verticalAlign=top;spacingLeft=4;spacingRight=4;overflow=hidden;rotatable=0;points=[[0,0.5],[1,0.5]];portConstraint=eastwest;rounded=0;shadow=0;html=0;" parent="zkfFHV4jXpPFQw0GAbJ--6" vertex="1"><mxGeometry y="78" width="160" height="26" as="geometry"/></mxCell><mxCell id="zkfFHV4jXpPFQw0GAbJ--9" value="" style="line;html=1;strokeWidth=1;align=left;verticalAlign=middle;spacingTop=-1;spacingLeft=3;spacingRight=3;rotatable=0;labelPosition=right;points=[];portConstraint=eastwest;" parent="zkfFHV4jXpPFQw0GAbJ--6" vertex="1"><mxGeometry y="104" width="160" height="8" as="geometry"/></mxCell><mxCell id="zkfFHV4jXpPFQw0GAbJ--10" value="- buildPlateau(): String" style="text;align=left;verticalAlign=top;spacingLeft=4;spacingRight=4;overflow=hidden;rotatable=0;points=[[0,0.5],[1,0.5]];portConstraint=eastwest;fontStyle=0" parent="zkfFHV4jXpPFQw0GAbJ--6" vertex="1"><mxGeometry y="112" width="160" height="26" as="geometry"/></mxCell><mxCell id="zkfFHV4jXpPFQw0GAbJ--17" value=" RoverMove" style="swimlane;fontStyle=0;align=center;verticalAlign=top;childLayout=stackLayout;horizontal=1;startSize=26;horizontalStack=0;resizeParent=1;resizeLast=0;collapsible=1;marginBottom=0;rounded=0;shadow=0;strokeWidth=1;fillColor=#330000;strokeColor=#82b366;fontColor=#FFFFFF;" parent="WIyWlLk6GJQsqaUBKTNV-1" vertex="1"><mxGeometry x="589" y="63" width="203" height="197" as="geometry"><mxRectangle x="550" y="140" width="160" height="26" as="alternateBounds"/></mxGeometry></mxCell><mxCell id="hSb6sBCyw228-_JQEsBA-59" value="- x: Integer" style="text;align=left;verticalAlign=top;spacingLeft=4;spacingRight=4;overflow=hidden;rotatable=0;points=[[0,0.5],[1,0.5]];portConstraint=eastwest;" parent="zkfFHV4jXpPFQw0GAbJ--17" vertex="1"><mxGeometry y="26" width="203" height="26" as="geometry"/></mxCell><mxCell id="hSb6sBCyw228-_JQEsBA-74" value="- y: Integer" style="text;align=left;verticalAlign=top;spacingLeft=4;spacingRight=4;overflow=hidden;rotatable=0;points=[[0,0.5],[1,0.5]];portConstraint=eastwest;" parent="zkfFHV4jXpPFQw0GAbJ--17" vertex="1"><mxGeometry y="52" width="203" height="26" as="geometry"/></mxCell><mxCell id="hSb6sBCyw228-_JQEsBA-60" value="+ direction: String " style="text;align=left;verticalAlign=top;spacingLeft=4;spacingRight=4;overflow=hidden;rotatable=0;points=[[0,0.5],[1,0.5]];portConstraint=eastwest;rounded=0;shadow=0;html=0;" parent="zkfFHV4jXpPFQw0GAbJ--17" vertex="1"><mxGeometry y="78" width="203" height="26" as="geometry"/></mxCell><mxCell id="zkfFHV4jXpPFQw0GAbJ--23" value="" style="line;html=1;strokeWidth=1;align=left;verticalAlign=middle;spacingTop=-1;spacingLeft=3;spacingRight=3;rotatable=0;labelPosition=right;points=[];portConstraint=eastwest;" parent="zkfFHV4jXpPFQw0GAbJ--17" vertex="1"><mxGeometry y="104" width="203" height="8" as="geometry"/></mxCell><mxCell id="zkfFHV4jXpPFQw0GAbJ--24" value="+ rotateRight(): String" style="text;align=left;verticalAlign=top;spacingLeft=4;spacingRight=4;overflow=hidden;rotatable=0;points=[[0,0.5],[1,0.5]];portConstraint=eastwest;" parent="zkfFHV4jXpPFQw0GAbJ--17" vertex="1"><mxGeometry y="112" width="203" height="26" as="geometry"/></mxCell><mxCell id="zkfFHV4jXpPFQw0GAbJ--25" value="+ rotateLeft(): String" style="text;align=left;verticalAlign=top;spacingLeft=4;spacingRight=4;overflow=hidden;rotatable=0;points=[[0,0.5],[1,0.5]];portConstraint=eastwest;" parent="zkfFHV4jXpPFQw0GAbJ--17" vertex="1"><mxGeometry y="138" width="203" height="26" as="geometry"/></mxCell><mxCell id="hSb6sBCyw228-_JQEsBA-18" value="+ moveForward()" style="text;align=left;verticalAlign=top;spacingLeft=4;spacingRight=4;overflow=hidden;rotatable=0;points=[[0,0.5],[1,0.5]];portConstraint=eastwest;" parent="zkfFHV4jXpPFQw0GAbJ--17" vertex="1"><mxGeometry y="164" width="203" height="26" as="geometry"/></mxCell><mxCell id="hSb6sBCyw228-_JQEsBA-0" value="ProgramController" style="swimlane;fontStyle=0;align=center;verticalAlign=top;childLayout=stackLayout;horizontal=1;startSize=26;horizontalStack=0;resizeParent=1;resizeLast=0;collapsible=1;marginBottom=0;rounded=0;shadow=0;strokeWidth=1;fillColor=#330000;strokeColor=#82b366;swimlaneFillColor=default;fontColor=#FFFFFF;" parent="WIyWlLk6GJQsqaUBKTNV-1" vertex="1"><mxGeometry x="264" y="35" width="230" height="190" as="geometry"><mxRectangle x="230" y="140" width="160" height="26" as="alternateBounds"/></mxGeometry></mxCell><mxCell id="hSb6sBCyw228-_JQEsBA-1" value="+ plateauSize: String" style="text;align=left;verticalAlign=top;spacingLeft=4;spacingRight=4;overflow=hidden;rotatable=0;points=[[0,0.5],[1,0.5]];portConstraint=eastwest;" parent="hSb6sBCyw228-_JQEsBA-0" vertex="1"><mxGeometry y="26" width="230" height="26" as="geometry"/></mxCell><mxCell id="hSb6sBCyw228-_JQEsBA-120" value="" style="html=1;verticalAlign=bottom;labelBackgroundColor=none;endArrow=block;endFill=1;rounded=0;entryX=0;entryY=0.5;entryDx=0;entryDy=0;" parent="hSb6sBCyw228-_JQEsBA-0" target="hSb6sBCyw228-_JQEsBA-77" edge="1"><mxGeometry width="160" relative="1" as="geometry"><mxPoint x="-69" y="65" as="sourcePoint"/><mxPoint x="21" y="64.41" as="targetPoint"/></mxGeometry></mxCell><mxCell id="hSb6sBCyw228-_JQEsBA-77" value="+ startPosition [ ]: String" style="text;align=left;verticalAlign=top;spacingLeft=4;spacingRight=4;overflow=hidden;rotatable=0;points=[[0,0.5],[1,0.5]];portConstraint=eastwest;" parent="hSb6sBCyw228-_JQEsBA-0" vertex="1"><mxGeometry y="52" width="230" height="26" as="geometry"/></mxCell><mxCell id="hSb6sBCyw228-_JQEsBA-82" value="+ navInstructions [ ]: String" style="text;align=left;verticalAlign=top;spacingLeft=4;spacingRight=4;overflow=hidden;rotatable=0;points=[[0,0.5],[1,0.5]];portConstraint=eastwest;rounded=0;shadow=0;html=0;" parent="hSb6sBCyw228-_JQEsBA-0" vertex="1"><mxGeometry y="78" width="230" height="26" as="geometry"/></mxCell><mxCell id="hSb6sBCyw228-_JQEsBA-4" value="" style="line;html=1;strokeWidth=1;align=left;verticalAlign=middle;spacingTop=-1;spacingLeft=3;spacingRight=3;rotatable=0;labelPosition=right;points=[];portConstraint=eastwest;" parent="hSb6sBCyw228-_JQEsBA-0" vertex="1"><mxGeometry y="104" width="230" height="8" as="geometry"/></mxCell><mxCell id="hSb6sBCyw228-_JQEsBA-101" value="- callBuildMap(): String" style="text;align=left;verticalAlign=top;spacingLeft=4;spacingRight=4;overflow=hidden;rotatable=0;points=[[0,0.5],[1,0.5]];portConstraint=eastwest;rounded=0;shadow=0;html=0;" parent="hSb6sBCyw228-_JQEsBA-0" vertex="1"><mxGeometry y="112" width="230" height="26" as="geometry"/></mxCell><mxCell id="hSb6sBCyw228-_JQEsBA-105" value="- getDirections(): String" style="text;align=left;verticalAlign=top;spacingLeft=4;spacingRight=4;overflow=hidden;rotatable=0;points=[[0,0.5],[1,0.5]];portConstraint=eastwest;rounded=0;shadow=0;html=0;" parent="hSb6sBCyw228-_JQEsBA-0" vertex="1"><mxGeometry y="138" width="230" height="26" as="geometry"/></mxCell><mxCell id="hSb6sBCyw228-_JQEsBA-100" value="- callRoverController(): String [ ]" style="text;align=left;verticalAlign=top;spacingLeft=4;spacingRight=4;overflow=hidden;rotatable=0;points=[[0,0.5],[1,0.5]];portConstraint=eastwest;rounded=0;shadow=0;html=0;" parent="hSb6sBCyw228-_JQEsBA-0" vertex="1"><mxGeometry y="164" width="230" height="26" as="geometry"/></mxCell><mxCell id="hSb6sBCyw228-_JQEsBA-30" value="RoverController" style="swimlane;fontStyle=0;align=center;verticalAlign=top;childLayout=stackLayout;horizontal=1;startSize=26;horizontalStack=0;resizeParent=1;resizeLast=0;collapsible=1;marginBottom=0;rounded=0;shadow=0;strokeWidth=1;fillColor=#330000;strokeColor=#82b366;fontColor=#FFFFFF;" parent="WIyWlLk6GJQsqaUBKTNV-1" vertex="1"><mxGeometry x="274" y="363" width="210" height="147" as="geometry"><mxRectangle x="550" y="140" width="160" height="26" as="alternateBounds"/></mxGeometry></mxCell><mxCell id="hSb6sBCyw228-_JQEsBA-70" value="- roverId [ ]: Integer" style="text;align=left;verticalAlign=top;spacingLeft=4;spacingRight=4;overflow=hidden;rotatable=0;points=[[0,0.5],[1,0.5]];portConstraint=eastwest;" parent="hSb6sBCyw228-_JQEsBA-30" vertex="1"><mxGeometry y="26" width="210" height="26" as="geometry"/></mxCell><mxCell id="hSb6sBCyw228-_JQEsBA-92" value="+ startPosition [ ]; String " style="text;align=left;verticalAlign=top;spacingLeft=4;spacingRight=4;overflow=hidden;rotatable=0;points=[[0,0.5],[1,0.5]];portConstraint=eastwest;" parent="hSb6sBCyw228-_JQEsBA-30" vertex="1"><mxGeometry y="52" width="210" height="26" as="geometry"/></mxCell><mxCell id="hSb6sBCyw228-_JQEsBA-31" value="+ navInstructions [ ] : String" style="text;align=left;verticalAlign=top;spacingLeft=4;spacingRight=4;overflow=hidden;rotatable=0;points=[[0,0.5],[1,0.5]];portConstraint=eastwest;" parent="hSb6sBCyw228-_JQEsBA-30" vertex="1"><mxGeometry y="78" width="210" height="26" as="geometry"/></mxCell><mxCell id="hSb6sBCyw228-_JQEsBA-36" value="" style="line;html=1;strokeWidth=1;align=left;verticalAlign=middle;spacingTop=-1;spacingLeft=3;spacingRight=3;rotatable=0;labelPosition=right;points=[];portConstraint=eastwest;" parent="hSb6sBCyw228-_JQEsBA-30" vertex="1"><mxGeometry y="104" width="210" height="8" as="geometry"/></mxCell><mxCell id="hSb6sBCyw228-_JQEsBA-119" value="+ callMoveRover(): String &#10;" style="text;align=left;verticalAlign=top;spacingLeft=4;spacingRight=4;overflow=hidden;rotatable=0;points=[[0,0.5],[1,0.5]];portConstraint=eastwest;" parent="hSb6sBCyw228-_JQEsBA-30" vertex="1"><mxGeometry y="112" width="210" height="26" as="geometry"/></mxCell><mxCell id="hSb6sBCyw228-_JQEsBA-40" value="Obstacle" style="swimlane;fontStyle=0;align=center;verticalAlign=top;childLayout=stackLayout;horizontal=1;startSize=26;horizontalStack=0;resizeParent=1;resizeLast=0;collapsible=1;marginBottom=0;rounded=0;shadow=0;strokeWidth=1;fillColor=#330000;strokeColor=#82b366;fontColor=#FFFFFF;" parent="WIyWlLk6GJQsqaUBKTNV-1" vertex="1"><mxGeometry x="595.5" y="387" width="190" height="123" as="geometry"><mxRectangle x="550" y="140" width="160" height="26" as="alternateBounds"/></mxGeometry></mxCell><mxCell id="hSb6sBCyw228-_JQEsBA-125" value="+ currentPosition: String" style="text;align=left;verticalAlign=top;spacingLeft=4;spacingRight=4;overflow=hidden;rotatable=0;points=[[0,0.5],[1,0.5]];portConstraint=eastwest;" parent="hSb6sBCyw228-_JQEsBA-40" vertex="1"><mxGeometry y="26" width="190" height="26" as="geometry"/></mxCell><mxCell id="hSb6sBCyw228-_JQEsBA-46" value="" style="line;html=1;strokeWidth=1;align=left;verticalAlign=middle;spacingTop=-1;spacingLeft=3;spacingRight=3;rotatable=0;labelPosition=right;points=[];portConstraint=eastwest;" parent="hSb6sBCyw228-_JQEsBA-40" vertex="1"><mxGeometry y="52" width="190" height="8" as="geometry"/></mxCell><mxCell id="hSb6sBCyw228-_JQEsBA-57" value="+ getEachCurrentRoverPosition()" style="text;align=left;verticalAlign=top;spacingLeft=4;spacingRight=4;overflow=hidden;rotatable=0;points=[[0,0.5],[1,0.5]];portConstraint=eastwest;" parent="hSb6sBCyw228-_JQEsBA-40" vertex="1"><mxGeometry y="60" width="190" height="26" as="geometry"/></mxCell><mxCell id="hSb6sBCyw228-_JQEsBA-56" value="+ checkObstacle()" style="text;align=left;verticalAlign=top;spacingLeft=4;spacingRight=4;overflow=hidden;rotatable=0;points=[[0,0.5],[1,0.5]];portConstraint=eastwest;" parent="hSb6sBCyw228-_JQEsBA-40" vertex="1"><mxGeometry y="86" width="190" height="26" as="geometry"/></mxCell><mxCell id="hSb6sBCyw228-_JQEsBA-106" value="Directions" style="swimlane;fontStyle=0;align=center;verticalAlign=top;childLayout=stackLayout;horizontal=1;startSize=26;horizontalStack=0;resizeParent=1;resizeLast=0;collapsible=1;marginBottom=0;rounded=0;shadow=0;strokeWidth=1;fillColor=#330000;strokeColor=#82b366;fontColor=#FFFFFF;" parent="WIyWlLk6GJQsqaUBKTNV-1" vertex="1"><mxGeometry x="35" y="213" width="175" height="112" as="geometry"><mxRectangle x="550" y="140" width="160" height="26" as="alternateBounds"/></mxGeometry></mxCell><mxCell id="hSb6sBCyw228-_JQEsBA-107" value="+ navInstructions [ ]: String" style="text;align=left;verticalAlign=top;spacingLeft=4;spacingRight=4;overflow=hidden;rotatable=0;points=[[0,0.5],[1,0.5]];portConstraint=eastwest;" parent="hSb6sBCyw228-_JQEsBA-106" vertex="1"><mxGeometry y="26" width="175" height="26" as="geometry"/></mxCell><mxCell id="hSb6sBCyw228-_JQEsBA-110" value="" style="line;html=1;strokeWidth=1;align=left;verticalAlign=middle;spacingTop=-1;spacingLeft=3;spacingRight=3;rotatable=0;labelPosition=right;points=[];portConstraint=eastwest;" parent="hSb6sBCyw228-_JQEsBA-106" vertex="1"><mxGeometry y="52" width="175" height="8" as="geometry"/></mxCell><mxCell id="hSb6sBCyw228-_JQEsBA-111" value="+ processInstructions(): String &#10;" style="text;align=left;verticalAlign=top;spacingLeft=4;spacingRight=4;overflow=hidden;rotatable=0;points=[[0,0.5],[1,0.5]];portConstraint=eastwest;" parent="hSb6sBCyw228-_JQEsBA-106" vertex="1"><mxGeometry y="60" width="175" height="26" as="geometry"/></mxCell><mxCell id="J-X8GjPtFG8bFXp7aOoa-0" value="+ setEndPosition(): String" style="text;align=left;verticalAlign=top;spacingLeft=4;spacingRight=4;overflow=hidden;rotatable=0;points=[[0,0.5],[1,0.5]];portConstraint=eastwest;" parent="hSb6sBCyw228-_JQEsBA-106" vertex="1"><mxGeometry y="86" width="175" height="26" as="geometry"/></mxCell><mxCell id="hSb6sBCyw228-_JQEsBA-117" value="" style="endArrow=diamondThin;endFill=0;endSize=24;html=1;rounded=0;exitX=0.448;exitY=1;exitDx=0;exitDy=0;exitPerimeter=0;entryX=0.441;entryY=-0.017;entryDx=0;entryDy=0;entryPerimeter=0;" parent="WIyWlLk6GJQsqaUBKTNV-1" source="hSb6sBCyw228-_JQEsBA-100" target="hSb6sBCyw228-_JQEsBA-30" edge="1"><mxGeometry width="160" relative="1" as="geometry"><mxPoint x="435" y="353" as="sourcePoint"/><mxPoint x="595" y="353" as="targetPoint"/></mxGeometry></mxCell><mxCell id="hSb6sBCyw228-_JQEsBA-121" value="" style="html=1;verticalAlign=bottom;labelBackgroundColor=none;endArrow=block;endFill=1;rounded=0;exitX=0.75;exitY=0;exitDx=0;exitDy=0;entryX=0;entryY=0.5;entryDx=0;entryDy=0;" parent="WIyWlLk6GJQsqaUBKTNV-1" source="hSb6sBCyw228-_JQEsBA-106" target="hSb6sBCyw228-_JQEsBA-101" edge="1"><mxGeometry width="160" relative="1" as="geometry"><mxPoint x="445" y="253" as="sourcePoint"/><mxPoint x="605" y="253" as="targetPoint"/></mxGeometry></mxCell><mxCell id="hSb6sBCyw228-_JQEsBA-123" value="" style="endArrow=open;endFill=1;endSize=12;html=1;rounded=0;entryX=1;entryY=0.5;entryDx=0;entryDy=0;exitX=0.07;exitY=1.331;exitDx=0;exitDy=0;exitPerimeter=0;" parent="WIyWlLk6GJQsqaUBKTNV-1" source="hSb6sBCyw228-_JQEsBA-18" target="hSb6sBCyw228-_JQEsBA-92" edge="1"><mxGeometry width="160" relative="1" as="geometry"><mxPoint x="586.97" y="282.874" as="sourcePoint"/><mxPoint x="605" y="253" as="targetPoint"/></mxGeometry></mxCell><mxCell id="hSb6sBCyw228-_JQEsBA-124" value="" style="endArrow=open;endFill=1;endSize=12;html=1;rounded=0;entryX=0.5;entryY=1;entryDx=0;entryDy=0;" parent="WIyWlLk6GJQsqaUBKTNV-1" target="zkfFHV4jXpPFQw0GAbJ--17" edge="1"><mxGeometry width="160" relative="1" as="geometry"><mxPoint x="690" y="385" as="sourcePoint"/><mxPoint x="690" y="305" as="targetPoint"/><Array as="points"/></mxGeometry></mxCell></root></mxGraphModel></diagram></mxfile>